<?xml version="1.0" standalone="no"?>
<!DOCTYPE svg PUBLIC "-//W3C//DTD SVG 20010904//EN"
 "http://www.w3.org/TR/2001/REC-SVG-20010904/DTD/svg10.dtd">
<svg version="1.0" xmlns="http://www.w3.org/2000/svg"
 width="200.000000pt" height="200.000000pt" viewBox="0 0 200.000000 200.000000"
 preserveAspectRatio="xMidYMid meet">
<metadata>
Created by potrace 1.11, written by Peter Selinger 2001-2013
</metadata>
<g transform="translate(0.000000,200.000000) scale(0.100000,-0.100000)"
fill="#000000" stroke="none">
<path d="M20 1997 c7 -7 153 -47 158 -43 1 2 -13 11 -32 20 -33 16 -136 35
-126 23z"/>
<path d="M740 1994 c0 -3 7 -12 15 -20 8 -9 15 -24 15 -35 0 -10 7 -19 15 -19
8 0 15 -4 15 -10 0 -5 5 -10 12 -10 6 0 20 -7 29 -16 18 -16 18 -17 -4 -33
-12 -9 -39 -25 -59 -35 -21 -11 -38 -24 -38 -30 0 -6 -14 -27 -31 -46 -76 -88
-133 -203 -153 -315 -4 -22 -14 -47 -21 -55 -19 -21 -54 -124 -67 -193 -10
-51 -9 -60 8 -78 17 -19 17 -24 2 -121 -9 -55 -23 -107 -30 -114 -10 -10 -24
-10 -58 -2 -25 5 -62 12 -83 15 -20 3 -40 9 -43 14 -3 5 -15 9 -27 9 -13 0
-40 9 -62 20 -28 14 -59 20 -107 20 l-68 0 0 -470 0 -470 849 0 850 0 -66 68
c-36 37 -78 85 -94 106 -18 24 -29 33 -29 23 0 -20 -10 -21 -44 -6 -30 14 -37
30 -29 69 5 25 8 28 20 18 16 -13 33 3 33 34 0 25 22 13 44 -25 l18 -32 70 75
c38 41 76 87 84 102 l14 27 -47 14 c-37 11 -48 19 -46 33 1 11 7 55 14 99 7
44 12 191 12 326 l1 246 34 22 c20 13 54 26 76 29 23 2 53 11 68 18 40 21 51
17 31 -11 -10 -14 -35 -29 -55 -35 -46 -13 -48 -25 -6 -34 27 -5 37 -1 63 24
17 16 34 30 37 30 3 0 2 -19 -4 -42 -5 -24 -8 -55 -5 -70 2 -16 0 -28 -5 -28
-4 0 -8 -5 -8 -11 0 -5 4 -8 9 -4 5 3 12 2 15 -3 5 -9 -22 -168 -54 -307 -11
-49 -20 -110 -22 -134 -2 -51 15 -67 96 -96 28 -10 57 -20 64 -23 9 -3 12 150
12 747 l0 751 -281 0 -281 0 7 -62 c4 -35 11 -71 17 -81 6 -12 4 -24 -6 -38
-12 -18 -13 -26 0 -61 8 -22 14 -45 14 -52 0 -17 -51 39 -54 60 -2 10 -7 19
-12 20 -5 0 -43 17 -86 37 -78 38 -151 107 -159 152 -4 19 -13 20 -212 23
-114 1 -207 0 -207 -4z m1151 -636 c-27 -53 -39 -69 -73 -91 -45 -28 -56 -18
-17 16 19 18 50 54 68 80 39 58 52 55 22 -5z m-793 -17 c26 -32 34 -64 19 -78
-11 -12 -18 -11 -43 2 -16 8 -40 13 -55 10 -20 -5 -28 0 -38 19 -16 28 -8 46
20 46 11 0 22 7 25 15 7 18 53 9 72 -14z m-568 -101 c0 -5 -5 -10 -11 -10 -5
0 -7 5 -4 10 3 6 8 10 11 10 2 0 4 -4 4 -10z m285 -47 c21 -26 19 -42 -7 -43
-6 0 -38 56 -38 67 0 12 25 -1 45 -24z m721 -129 c-4 -13 -2 -24 3 -24 13 0 1
-83 -14 -96 -8 -6 -12 -22 -9 -40 9 -47 5 -95 -11 -143 -8 -23 -9 -23 -32 15
-42 68 -45 83 -23 111 11 14 20 33 20 42 0 10 9 37 21 60 12 26 18 53 15 67
-4 13 -1 33 6 44 11 17 14 17 21 4 5 -8 6 -26 3 -40z m-411 16 c3 -5 1 -10 -4
-10 -6 0 -11 5 -11 10 0 6 2 10 4 10 3 0 8 -4 11 -10z m65 0 c0 -5 -4 -10 -10
-10 -5 0 -10 5 -10 10 0 6 5 10 10 10 6 0 10 -4 10 -10z m45 -41 c-4 -5 -14
-9 -25 -9 -13 0 -17 5 -13 20 4 16 9 18 24 9 11 -5 17 -14 14 -20z m-290 -108
c3 -5 1 -13 -5 -16 -15 -9 -43 3 -35 15 8 13 32 13 40 1z m155 -81 c0 -19 -11
-26 -23 -14 -8 8 3 34 14 34 5 0 9 -9 9 -20z m327 -72 c30 -32 39 -90 19 -108
-10 -7 -14 -20 -10 -32 5 -17 0 -18 -48 -17 -29 1 -57 5 -63 9 -5 4 -22 10
-36 13 l-26 7 35 75 c35 73 37 75 72 75 25 0 43 -7 57 -22z m-597 -134 c0 -2
-7 -4 -15 -4 -8 0 -15 4 -15 10 0 5 7 7 15 4 8 -4 15 -8 15 -10z m750 -64 c0
-11 -6 -20 -14 -20 -9 0 -12 7 -9 20 3 11 9 20 14 20 5 0 9 -9 9 -20z m-143
-26 c-3 -3 -12 -4 -19 -1 -8 3 -5 6 6 6 11 1 17 -2 13 -5z m103 -46 c0 -5 -9
-8 -20 -8 -23 0 -25 6 -7 24 12 13 26 4 27 -16z m-100 12 c0 -5 -5 -10 -11
-10 -5 0 -7 5 -4 10 3 6 8 10 11 10 2 0 4 -4 4 -10z m-380 -45 c0 -28 -11 -37
-30 -25 -11 7 -12 14 -2 35 14 30 32 25 32 -10z"/>
<path d="M1200 1996 c0 -16 41 -86 50 -86 6 0 10 20 10 45 0 33 -4 45 -15 45
-8 0 -15 -5 -15 -11 0 -8 -5 -8 -15 1 -8 7 -15 9 -15 6z"/>
<path d="M1860 995 c-6 -16 -9 -36 -7 -44 2 -9 9 2 15 23 13 47 7 62 -8 21z"/>
<path d="M1827 866 c-19 -70 -22 -116 -8 -116 5 0 12 19 16 43 8 48 16 137 12
137 -2 0 -11 -29 -20 -64z"/>
<path d="M1960 292 c0 -5 9 -17 20 -27 19 -18 20 -17 20 2 0 12 -7 24 -16 27
-21 8 -24 8 -24 -2z"/>
<path d="M1540 233 c0 -5 32 -40 70 -78 43 -42 68 -75 65 -84 -8 -20 24 -51
54 -52 24 0 24 -1 6 -9 -15 -6 -7 -9 30 -9 40 0 45 2 28 9 -13 5 -23 15 -23
23 0 7 -45 51 -101 98 -55 46 -107 90 -115 97 -8 7 -14 10 -14 5z"/>
<path d="M1940 64 l-55 -59 54 -3 c29 -2 55 -1 58 1 2 3 3 31 1 62 l-3 57 -55
-58z"/>
</g>
</svg>
